Coordinates
version=1
nRows=38
nColumns=12
inDegrees=yes

Units are S.I. units (second, meters, Newtons, ...)
Angles are in degrees

endheader
time	SC_y	SC_z	SC_x	AC_y	AC_z	AC_x	GH_y	GH_z	GH_yy	EL_x	PS_y
       0.0              -27.67          19.17          53.66          46.81         -1.278           19.6         -84.58          72.96          151.5          130.7          41.86
   0.02781              -27.67          19.16          53.66          46.82          -1.28           19.6         -84.58          72.96          151.5          130.7          41.87
   0.05562              -27.67          19.16          53.65          46.82         -1.282          19.59         -84.58          72.95          151.4          130.7          41.87
   0.08342              -27.67          19.16          53.65          46.82         -1.285          19.59         -84.59          72.94          151.4          130.7          41.88
    0.1112              -27.67          19.16          53.64          46.83         -1.287          19.59         -84.59          72.93          151.4          130.7          41.88
     0.139              -27.67          19.16          53.63          46.83          -1.29          19.58         -84.59          72.92          151.4          130.7          41.89
    0.1668              -27.67          19.15          53.63          46.83         -1.293          19.58          -84.6          72.91          151.3          130.7          41.89
    0.1947              -27.67          19.15          53.62          46.84         -1.296          19.58          -84.6           72.9          151.3          130.7           41.9
    0.2225              -27.68          19.15          53.61          46.84           -1.3          19.57         -84.61          72.89          151.3          130.7          41.91
    0.2503              -27.68          19.14           53.6          46.85         -1.303          19.57         -84.62          72.88          151.2          130.7          41.92
    0.2781              -27.68          19.14          53.59          46.85         -1.307          19.57         -84.62          72.87          151.2          130.7          41.92
    0.3059              -27.68          19.13          53.58          46.86         -1.311          19.56         -84.63          72.86          151.1          130.7          41.93
    0.3337              -27.68          19.13          53.57          46.87         -1.316          19.56         -84.64          72.84          151.1          130.7          41.94
    0.3615              -27.68          19.13          53.56          46.87         -1.321          19.55         -84.64          72.82          151.0          130.7          41.95
    0.3893              -27.68          19.12          53.55          46.88         -1.326          19.54         -84.65          72.81          151.0          130.7          41.96
    0.4171              -27.69          19.12          53.54          46.89         -1.332          19.54         -84.66          72.79          150.9          130.7          41.98
    0.4449              -27.69          19.11          53.52           46.9         -1.338          19.53         -84.67          72.77          150.8          130.7          41.99
    0.4727              -27.69           19.1          53.51          46.91         -1.345          19.52         -84.68          72.75          150.8          130.7           42.0
    0.5005              -27.69           19.1          53.49          46.92         -1.352          19.52         -84.69          72.72          150.7          130.7          42.02
    0.5283              -27.69          19.09          53.47          46.93          -1.36          19.51         -84.71           72.7          150.6          130.7          42.04
    0.5562               -27.7          19.08          53.45          46.95         -1.369           19.5         -84.72          72.67          150.5          130.7          42.06
     0.584               -27.7          19.07          53.43          46.96         -1.379          19.49         -84.74          72.64          150.4          130.7          42.08
    0.6118               -27.7          19.06           53.4          46.98          -1.39          19.47         -84.75           72.6          150.3          130.6           42.1
    0.6396              -27.71          19.05          53.37          46.99         -1.402          19.46         -84.77          72.56          150.1          130.6          42.13
    0.6674              -27.71          19.04          53.34          47.01         -1.415          19.45         -84.79          72.52          150.0          130.6          42.15
    0.6952              -27.72          19.02          53.31          47.03          -1.43          19.43         -84.82          72.47          149.8          130.6          42.19
     0.723              -27.72          19.01          53.27          47.06         -1.447          19.41         -84.85          72.42          149.7          130.6          42.22
    0.7508              -27.73          18.99          53.23          47.09         -1.466          19.39         -84.88          72.35          149.5          130.6          42.26
    0.7786              -27.73          18.97          53.18          47.12         -1.487          19.37         -84.91          72.29          149.2          130.6          42.31
    0.8064              -27.74          18.95          53.12          47.15         -1.511          19.34         -84.95          72.21          149.0          130.6          42.36
    0.8342              -27.75          18.92          53.06          47.19         -1.538          19.31         -84.99          72.12          148.7          130.6          42.42
     0.862              -27.76          18.89          52.98          47.24          -1.57          19.28         -85.04          72.02          148.3          130.6          42.48
    0.8898              -27.77          18.86           52.9          47.29         -1.606          19.24          -85.1           71.9          147.9          130.5          42.56
    0.9176              -27.79          18.82           52.8          47.35         -1.649          19.19         -85.17          71.76          147.5          130.5          42.65
    0.9455               -27.8          18.77          52.69          47.42         -1.698          19.14         -85.25           71.6          146.9          130.5          42.76
    0.9733              -27.82          18.71          52.55          47.51         -1.757          19.07         -85.34          71.41          146.3          130.5          42.88
     1.001              -27.84          18.65          52.39          47.61         -1.826           19.0         -85.45          71.18          145.5          130.4          43.03
     1.029              -27.87          18.57           52.2          47.73         -1.909          18.91         -85.58          70.91          144.6          130.4           43.2
